<svg xmlns="http://www.w3.org/2000/svg" xmlns:xlink="http://www.w3.org/1999/xlink" width="500" zoomAndPan="magnify" viewBox="0 0 375 374.999991" height="500" preserveAspectRatio="xMidYMid meet" version="1.0"><defs><g/><clipPath id="id1"><path d="M 135.777344 136 L 139 136 L 139 151 L 135.777344 151 Z M 135.777344 136 " clip-rule="nonzero"/></clipPath><clipPath id="id2"><path d="M 184 203 L 185 203 L 185 203.191406 L 184 203.191406 Z M 184 203 " clip-rule="nonzero"/></clipPath><clipPath id="id3"><path d="M 221 96.691406 L 234 96.691406 L 234 109 L 221 109 Z M 221 96.691406 " clip-rule="nonzero"/></clipPath><clipPath id="id4"><path d="M 228 153 L 239.277344 153 L 239.277344 167 L 228 167 Z M 228 153 " clip-rule="nonzero"/></clipPath></defs><path fill="#689ac5" d="M 186.839844 99.707031 C 187.957031 99.976562 189.445312 100.335938 190.5625 100.605469 C 190.980469 100.1875 191.53125 99.625 191.910156 99.171875 C 190.898438 98.476562 189.871094 97.929688 188.839844 97.535156 C 187.953125 97.429688 186.773438 97.296875 185.890625 97.207031 C 185.714844 97.4375 185.457031 97.722656 185.246094 97.917969 C 185.769531 98.363281 186.304688 98.964844 186.839844 99.707031 " fill-opacity="1" fill-rule="nonzero"/><path fill="#274082" d="M 180.355469 100.566406 C 181.203125 100.851562 182.339844 101.226562 183.195312 101.496094 C 183.894531 101.015625 184.824219 100.367188 185.511719 99.871094 C 185.101562 99.109375 184.695312 98.492188 184.304688 98.03125 C 183.699219 97.914062 182.890625 97.761719 182.285156 97.644531 C 181.796875 97.910156 181.140625 98.261719 180.648438 98.523438 C 180.523438 99.058594 180.425781 99.742188 180.355469 100.566406 " fill-opacity="1" fill-rule="nonzero"/><path fill="#69a2cd" d="M 174.117188 101.5625 C 174.652344 101.882812 175.375 102.292969 175.929688 102.574219 C 176.863281 102.03125 178.109375 101.304688 179.046875 100.757812 C 179.238281 99.917969 179.464844 99.214844 179.71875 98.664062 C 179.417969 98.527344 179.015625 98.34375 178.734375 98.171875 C 177.980469 98.484375 176.976562 98.90625 176.226562 99.230469 C 175.480469 99.863281 174.773438 100.640625 174.117188 101.5625 " fill-opacity="1" fill-rule="nonzero"/><path fill="#69a2cd" d="M 168.539062 102.625 C 168.707031 102.992188 168.976562 103.457031 169.226562 103.765625 C 170.328125 103.164062 171.800781 102.367188 172.910156 101.773438 C 173.679688 100.835938 174.503906 100.035156 175.371094 99.382812 C 175.34375 99.195312 175.363281 98.917969 175.457031 98.753906 C 174.496094 99.113281 173.222656 99.601562 172.273438 99.984375 C 170.964844 100.722656 169.71875 101.609375 168.539062 102.625 " fill-opacity="1" fill-rule="nonzero"/><path fill="#69a2cd" d="M 164.023438 103.699219 C 163.839844 104.066406 163.625 104.585938 163.550781 104.992188 C 164.734375 104.339844 166.320312 103.476562 167.515625 102.847656 C 168.792969 101.808594 170.136719 100.902344 171.546875 100.144531 C 171.867188 99.878906 172.320312 99.554688 172.679688 99.351562 C 171.59375 99.757812 170.148438 100.308594 169.070312 100.746094 C 167.3125 101.589844 165.625 102.578125 164.023438 103.699219 " fill-opacity="1" fill-rule="nonzero"/><path fill="#69a2cd" d="M 161.046875 104.679688 C 160.523438 105.105469 159.839844 105.691406 159.375 106.175781 C 160.535156 105.480469 162.085938 104.570312 163.265625 103.910156 C 164.941406 102.773438 166.699219 101.765625 168.535156 100.898438 C 169.15625 100.585938 169.996094 100.195312 170.636719 99.929688 C 169.527344 100.367188 168.054688 100.964844 166.960938 101.441406 C 164.902344 102.382812 162.929688 103.46875 161.046875 104.679688 " fill-opacity="1" fill-rule="nonzero"/><path fill="#69a2cd" d="M 160.679688 104.851562 C 161.773438 104.15625 162.894531 103.496094 164.042969 102.882812 C 162.429688 103.8125 160.300781 105.09375 158.746094 106.117188 L 158.476562 106.304688 C 159.136719 105.867188 160.011719 105.277344 160.679688 104.851562 " fill-opacity="1" fill-rule="nonzero"/><path fill="#3a6ab9" d="M 207.59375 107.152344 C 209.320312 107.75 211.617188 108.550781 213.339844 109.15625 C 214.445312 108.261719 215.90625 107.066406 216.992188 106.152344 C 216.15625 104.535156 215.28125 103.023438 214.382812 101.636719 C 212.8125 101.152344 210.71875 100.507812 209.144531 100.03125 C 208.210938 100.789062 206.960938 101.789062 206.011719 102.523438 C 206.546875 103.953125 207.074219 105.496094 207.59375 107.152344 " fill-opacity="1" fill-rule="nonzero"/><path fill="#274082" d="M 180.574219 114.429688 C 182.128906 115.015625 184.203125 115.792969 185.761719 116.371094 C 187.078125 115.402344 188.828125 114.113281 190.140625 113.140625 C 189.703125 111.476562 189.269531 109.917969 188.832031 108.480469 C 187.441406 108.019531 185.585938 107.398438 184.199219 106.925781 C 183.035156 107.742188 181.484375 108.824219 180.316406 109.628906 C 180.378906 111.117188 180.464844 112.722656 180.574219 114.429688 " fill-opacity="1" fill-rule="nonzero"/><path fill="#3881b6" d="M 169.011719 116.277344 C 170.308594 116.867188 172.039062 117.648438 173.347656 118.210938 C 174.785156 117.183594 176.703125 115.8125 178.148438 114.792969 C 178.117188 113.070312 178.121094 111.453125 178.15625 109.949219 C 177.019531 109.488281 175.507812 108.871094 174.382812 108.386719 C 173.074219 109.25 171.332031 110.402344 170.027344 111.269531 C 169.632812 112.832031 169.292969 114.503906 169.011719 116.277344 " fill-opacity="1" fill-rule="nonzero"/><path fill="#3a6ab9" d="M 158.667969 118.253906 C 159.625 118.871094 160.914062 119.675781 161.898438 120.246094 C 163.355469 119.167969 165.304688 117.734375 166.773438 116.671875 C 167.132812 114.890625 167.550781 113.203125 168.03125 111.625 C 167.210938 111.152344 166.125 110.511719 165.328125 109.992188 C 163.972656 110.894531 162.164062 112.109375 160.820312 113.03125 C 160.019531 114.671875 159.300781 116.414062 158.667969 118.253906 " fill-opacity="1" fill-rule="nonzero"/><path fill="#689ac5" d="M 150.292969 120.238281 C 150.835938 120.898438 151.589844 121.746094 152.199219 122.339844 C 153.558594 121.226562 155.386719 119.746094 156.773438 118.664062 C 157.46875 116.8125 158.257812 115.050781 159.128906 113.394531 C 158.660156 112.894531 158.054688 112.210938 157.660156 111.648438 C 156.363281 112.582031 154.640625 113.835938 153.363281 114.800781 C 152.238281 116.515625 151.210938 118.332031 150.292969 120.238281 " fill-opacity="1" fill-rule="nonzero"/><path fill="#689ac5" d="M 144.773438 122.058594 C 144.800781 122.753906 144.894531 123.683594 145.0625 124.359375 C 146.191406 123.222656 147.714844 121.722656 148.890625 120.636719 C 149.855469 118.714844 150.933594 116.882812 152.117188 115.152344 C 152.03125 114.585938 151.964844 113.816406 152.019531 113.246094 C 150.929688 114.179688 149.496094 115.4375 148.453125 116.417969 C 147.105469 118.207031 145.878906 120.09375 144.773438 122.058594 " fill-opacity="1" fill-rule="nonzero"/><path fill="#274082" d="M 141.578125 126.007812 C 142.300781 124.894531 143.296875 123.4375 144.097656 122.382812 C 145.222656 120.402344 146.476562 118.507812 147.847656 116.707031 C 148.238281 116.035156 148.792969 115.164062 149.261719 114.546875 L 148.511719 115.398438 L 146.757812 117.570312 C 143.667969 121.945312 143.609375 122.03125 142.265625 124.488281 L 142.261719 124.496094 C 142.058594 124.949219 141.746094 125.539062 141.578125 126.007812 " fill-opacity="1" fill-rule="nonzero"/><path fill="#69a2cd" d="M 197.65625 134.390625 C 199.625 135.238281 202.25 136.371094 204.210938 137.238281 C 205.753906 136.015625 207.8125 134.378906 209.351562 133.148438 C 208.847656 130.851562 208.289062 128.628906 207.675781 126.492188 C 205.753906 125.707031 203.191406 124.667969 201.261719 123.902344 C 199.796875 125.042969 197.84375 126.558594 196.375 127.691406 C 196.824219 129.84375 197.25 132.082031 197.65625 134.390625 " fill-opacity="1" fill-rule="nonzero"/><path fill="#4186b9" d="M 182.695312 136.367188 C 184.625 137.171875 187.199219 138.25 189.128906 139.066406 C 190.765625 137.769531 192.949219 136.046875 194.59375 134.761719 C 194.214844 132.449219 193.820312 130.210938 193.417969 128.050781 C 191.546875 127.316406 189.050781 126.335938 187.179688 125.605469 C 185.597656 126.800781 183.492188 128.398438 181.917969 129.601562 C 182.152344 131.78125 182.414062 134.042969 182.695312 136.367188 " fill-opacity="1" fill-rule="nonzero"/><path fill="#69a2cd" d="M 155.445312 141.121094 C 156.96875 141.910156 159 142.949219 160.539062 143.710938 C 162.023438 142.332031 164.011719 140.503906 165.527344 139.15625 C 165.386719 136.808594 165.324219 134.515625 165.332031 132.296875 C 163.871094 131.601562 161.933594 130.664062 160.488281 129.941406 C 159.007812 131.203125 157.042969 132.898438 155.589844 134.195312 C 155.441406 136.445312 155.390625 138.757812 155.445312 141.121094 " fill-opacity="1" fill-rule="nonzero"/><path fill="#3881b6" d="M 145.027344 143.59375 C 146.179688 144.402344 147.730469 145.460938 148.917969 146.21875 C 150.144531 144.824219 151.808594 142.980469 153.085938 141.628906 C 153.050781 139.261719 153.125 136.941406 153.308594 134.6875 C 152.195312 133.988281 150.71875 133.035156 149.640625 132.285156 C 148.382812 133.554688 146.730469 135.265625 145.523438 136.582031 C 145.226562 138.867188 145.058594 141.207031 145.027344 143.59375 " fill-opacity="1" fill-rule="nonzero"/><path fill="#3881b6" d="M 138.160156 145.859375 C 138.78125 146.722656 139.652344 147.847656 140.367188 148.636719 C 141.203125 147.246094 142.355469 145.417969 143.285156 144.085938 C 143.328125 141.695312 143.515625 139.351562 143.835938 137.058594 C 143.148438 136.335938 142.253906 135.34375 141.660156 134.542969 C 140.792969 135.789062 139.664062 137.46875 138.886719 138.769531 C 138.492188 141.085938 138.246094 143.453125 138.160156 145.859375 " fill-opacity="1" fill-rule="nonzero"/><g clip-path="url(#id1)"><path fill="#69a2cd" d="M 135.828125 147.582031 C 135.878906 148.496094 136 149.714844 136.191406 150.609375 C 136.476562 149.292969 136.90625 147.542969 137.320312 146.257812 C 137.410156 143.847656 137.667969 141.476562 138.074219 139.15625 C 137.921875 138.332031 137.769531 137.222656 137.757812 136.386719 C 137.40625 137.484375 136.949219 138.957031 136.695312 140.082031 L 136.691406 140.105469 C 136.457031 141.699219 136.121094 143.820312 135.964844 145.425781 L 135.828125 147.582031 " fill-opacity="1" fill-rule="nonzero"/></g><path fill="#69a2cd" d="M 186.394531 162.226562 C 188.25 163.007812 190.722656 164.058594 192.570312 164.851562 C 194.164062 163.59375 196.296875 161.921875 197.902344 160.675781 C 197.691406 158.355469 197.449219 155.980469 197.179688 153.574219 C 195.246094 152.710938 192.667969 151.5625 190.726562 150.710938 C 189.089844 152.046875 186.90625 153.832031 185.277344 155.179688 C 185.640625 157.574219 186.015625 159.929688 186.394531 162.226562 " fill-opacity="1" fill-rule="nonzero"/><path fill="#274082" d="M 206.8125 152.773438 C 208.664062 153.515625 211.136719 154.503906 212.992188 155.242188 C 214.425781 153.957031 216.34375 152.25 217.796875 150.988281 C 217.375 148.695312 216.96875 146.347656 216.574219 143.953125 C 214.652344 143.144531 212.089844 142.0625 210.171875 141.25 C 208.675781 142.605469 206.683594 144.421875 205.207031 145.800781 C 205.695312 148.179688 206.230469 150.507812 206.8125 152.773438 " fill-opacity="1" fill-rule="nonzero"/><path fill="#69a2cd" d="M 160.050781 166.824219 C 161.789062 167.542969 164.109375 168.492188 165.855469 169.191406 C 167.023438 167.894531 168.59375 166.183594 169.796875 164.925781 C 169.175781 162.664062 168.609375 160.339844 168.101562 157.96875 C 166.308594 157.195312 163.917969 156.152344 162.128906 155.359375 C 160.878906 156.714844 159.226562 158.539062 158.015625 159.933594 C 158.605469 162.289062 159.285156 164.59375 160.050781 166.824219 " fill-opacity="1" fill-rule="nonzero"/><path fill="#3881b6" d="M 149.976562 169.214844 C 151.476562 169.925781 153.480469 170.859375 155 171.535156 C 155.800781 170.253906 156.898438 168.554688 157.765625 167.316406 C 156.972656 165.089844 156.265625 162.796875 155.65625 160.441406 C 154.105469 159.6875 152.039062 158.664062 150.507812 157.867188 C 149.605469 159.210938 148.425781 161.015625 147.59375 162.40625 C 148.269531 164.742188 149.066406 167.015625 149.976562 169.214844 " fill-opacity="1" fill-rule="nonzero"/><path fill="#69a2cd" d="M 143.335938 171.402344 C 144.417969 172.152344 145.882812 173.117188 147.011719 173.796875 C 147.339844 172.550781 147.835938 170.898438 148.289062 169.691406 C 147.355469 167.5 146.539062 165.230469 145.851562 162.898438 C 144.664062 162.144531 143.09375 161.117188 141.957031 160.289062 C 141.535156 161.585938 141.015625 163.335938 140.726562 164.671875 C 141.457031 166.988281 142.332031 169.238281 143.335938 171.402344 " fill-opacity="1" fill-rule="nonzero"/><path fill="#69a2cd" d="M 141.078125 173.070312 C 141.648438 173.871094 142.449219 174.910156 143.109375 175.640625 C 142.875 174.496094 142.613281 172.953125 142.519531 171.789062 C 141.503906 169.628906 140.621094 167.386719 139.882812 165.070312 C 139.210938 164.261719 138.347656 163.148438 137.78125 162.261719 C 137.902344 163.507812 138.125 165.167969 138.390625 166.394531 C 139.140625 168.699219 140.039062 170.929688 141.078125 173.070312 " fill-opacity="1" fill-rule="nonzero"/><path fill="#3881b6" d="M 201.292969 182.898438 C 202.4375 183.546875 203.960938 184.421875 205.082031 185.113281 C 206.457031 184.175781 208.292969 182.933594 209.675781 182.011719 C 210.132812 180.152344 210.527344 178.207031 210.863281 176.179688 C 209.546875 175.378906 207.777344 174.328125 206.433594 173.570312 C 204.933594 174.648438 202.9375 176.089844 201.449219 177.179688 C 201.433594 179.171875 201.378906 181.082031 201.292969 182.898438 " fill-opacity="1" fill-rule="nonzero"/><path fill="#274082" d="M 190.566406 184.316406 C 191.933594 184.90625 193.75 185.703125 195.105469 186.320312 C 196.292969 185.363281 197.890625 184.097656 199.097656 183.167969 C 199.089844 181.359375 199.050781 179.460938 198.984375 177.476562 C 197.441406 176.75 195.382812 175.792969 193.828125 175.097656 C 192.492188 176.1875 190.71875 177.652344 189.402344 178.769531 C 189.792969 180.710938 190.179688 182.5625 190.566406 184.316406 " fill-opacity="1" fill-rule="nonzero"/><path fill="#3881b6" d="M 180.253906 185.960938 C 181.757812 186.503906 183.765625 187.226562 185.265625 187.78125 C 186.191406 186.824219 187.441406 185.5625 188.402344 184.640625 C 187.921875 182.898438 187.445312 181.058594 186.972656 179.132812 C 185.300781 178.46875 183.074219 177.589844 181.398438 176.941406 C 180.308594 178.03125 178.875 179.496094 177.824219 180.617188 C 178.605469 182.492188 179.417969 184.28125 180.253906 185.960938 " fill-opacity="1" fill-rule="nonzero"/><path fill="#3881b6" d="M 163.558594 189.496094 C 165.042969 189.96875 167.015625 190.59375 168.503906 191.050781 C 168.710938 190.152344 169.03125 188.960938 169.335938 188.089844 C 168.019531 186.5 166.761719 184.804688 165.566406 183.007812 C 163.957031 182.4375 161.820312 181.664062 160.21875 181.074219 C 159.835938 182.113281 159.355469 183.515625 159.078125 184.585938 C 160.492188 186.328125 161.988281 187.96875 163.558594 189.496094 " fill-opacity="1" fill-rule="nonzero"/><path fill="#69a2cd" d="M 158.636719 191.121094 C 159.894531 191.597656 161.578125 192.214844 162.847656 192.652344 C 162.628906 191.824219 162.390625 190.703125 162.308594 189.851562 C 160.683594 188.339844 159.132812 186.710938 157.671875 184.984375 C 156.285156 184.4375 154.441406 183.6875 153.074219 183.097656 C 153.15625 184.097656 153.324219 185.433594 153.546875 186.410156 C 155.148438 188.089844 156.851562 189.664062 158.636719 191.121094 " fill-opacity="1" fill-rule="nonzero"/><path fill="#69a2cd" d="M 156.964844 192.355469 C 157.886719 192.859375 159.132812 193.507812 160.085938 193.957031 C 159.433594 193.222656 158.59375 192.214844 158.03125 191.40625 C 156.21875 189.964844 154.492188 188.402344 152.871094 186.730469 C 151.867188 186.164062 150.546875 185.378906 149.585938 184.746094 C 150.167969 185.6875 150.988281 186.921875 151.667969 187.796875 C 153.332031 189.433594 155.101562 190.957031 156.964844 192.355469 " fill-opacity="1" fill-rule="nonzero"/><path fill="#274082" d="M 197.011719 193.308594 C 197.589844 193.605469 198.355469 194.007812 198.914062 194.34375 C 199.429688 193.871094 200.128906 193.257812 200.667969 192.816406 C 200.867188 191.855469 201.035156 190.753906 201.171875 189.523438 C 200.355469 189.039062 199.253906 188.410156 198.414062 187.964844 C 197.683594 188.628906 196.714844 189.523438 196.011719 190.21875 C 196.355469 191.382812 196.691406 192.417969 197.011719 193.308594 " fill-opacity="1" fill-rule="nonzero"/><path fill="#69a2cd" d="M 189.296875 197.757812 C 190.332031 197.960938 191.710938 198.230469 192.742188 198.4375 C 192.585938 198.070312 192.429688 197.550781 192.394531 197.152344 C 191.328125 196.382812 190.273438 195.464844 189.230469 194.414062 C 187.996094 194.050781 186.347656 193.574219 185.109375 193.21875 C 184.988281 193.828125 184.863281 194.648438 184.859375 195.265625 C 186.3125 196.238281 187.792969 197.070312 189.296875 197.757812 " fill-opacity="1" fill-rule="nonzero"/><path fill="#3881b6" d="M 180.746094 201.820312 C 181.925781 201.949219 183.503906 202.117188 184.6875 202.222656 C 183.964844 201.972656 183.007812 201.609375 182.320312 201.277344 C 180.289062 200.71875 178.292969 200.007812 176.347656 199.160156 C 175.046875 198.890625 173.3125 198.523438 172.015625 198.234375 C 172.621094 198.777344 173.457031 199.464844 174.125 199.925781 C 176.28125 200.703125 178.492188 201.339844 180.746094 201.820312 " fill-opacity="1" fill-rule="nonzero"/><path fill="#274082" d="M 180.027344 202.351562 C 181.125 202.46875 182.589844 202.609375 183.6875 202.695312 C 182.722656 202.496094 181.4375 202.207031 180.488281 201.945312 C 178.195312 201.480469 175.949219 200.863281 173.757812 200.101562 C 172.621094 199.84375 171.105469 199.488281 169.976562 199.199219 C 170.902344 199.671875 172.15625 200.269531 173.113281 200.675781 C 175.363281 201.382812 177.675781 201.945312 180.027344 202.351562 " fill-opacity="1" fill-rule="nonzero"/><g clip-path="url(#id2)"><path fill="#69a2cd" d="M 184.839844 203.195312 L 184.203125 203.140625 L 184.648438 203.179688 L 184.839844 203.195312 " fill-opacity="1" fill-rule="nonzero"/></g><path fill="#3881b6" d="M 194.351562 104.453125 C 195.886719 104.902344 197.933594 105.503906 199.46875 105.960938 C 200.09375 105.335938 200.914062 104.484375 201.484375 103.8125 C 200.300781 102.648438 199.078125 101.617188 197.824219 100.722656 C 196.488281 100.410156 194.707031 100 193.367188 99.703125 C 192.949219 100.183594 192.375 100.808594 191.925781 101.253906 C 192.746094 102.1875 193.554688 103.253906 194.351562 104.453125 " fill-opacity="1" fill-rule="nonzero"/><path fill="#274082" d="M 184.894531 105.570312 C 186.25 106.011719 188.050781 106.597656 189.40625 107.035156 C 190.320312 106.328125 191.539062 105.382812 192.4375 104.65625 C 191.75 103.445312 191.050781 102.367188 190.34375 101.421875 C 189.195312 101.125 187.667969 100.730469 186.519531 100.433594 C 185.800781 100.964844 184.835938 101.664062 184.105469 102.179688 C 184.355469 103.175781 184.621094 104.308594 184.894531 105.570312 " fill-opacity="1" fill-rule="nonzero"/><path fill="#69a2cd" d="M 175.519531 106.9375 C 176.609375 107.390625 178.066406 107.984375 179.167969 108.414062 C 180.304688 107.644531 181.820312 106.609375 182.953125 105.832031 C 182.78125 104.558594 182.628906 103.410156 182.496094 102.398438 C 181.613281 102.097656 180.433594 101.691406 179.554688 101.375 C 178.59375 101.953125 177.308594 102.730469 176.347656 103.3125 C 176.03125 104.390625 175.753906 105.605469 175.519531 106.9375 " fill-opacity="1" fill-rule="nonzero"/><path fill="#3881b6" d="M 166.808594 108.457031 C 167.574219 108.941406 168.605469 109.566406 169.398438 110.003906 C 170.675781 109.171875 172.378906 108.066406 173.664062 107.238281 C 174 105.890625 174.386719 104.660156 174.8125 103.558594 C 174.230469 103.246094 173.460938 102.8125 172.90625 102.453125 C 171.773438 103.082031 170.269531 103.925781 169.144531 104.570312 C 168.300781 105.742188 167.523438 107.042969 166.808594 108.457031 " fill-opacity="1" fill-rule="nonzero"/><path fill="#3a6ab9" d="M 159.355469 110.035156 C 159.738281 110.558594 160.285156 111.230469 160.734375 111.695312 C 162.058594 110.8125 163.824219 109.644531 165.160156 108.777344 C 165.96875 107.34375 166.84375 106.027344 167.78125 104.835938 C 167.519531 104.488281 167.183594 104.003906 167.011719 103.605469 C 165.796875 104.273438 164.183594 105.179688 162.980469 105.871094 C 161.691406 107.140625 160.480469 108.53125 159.355469 110.035156 " fill-opacity="1" fill-rule="nonzero"/><path fill="#3881b6" d="M 153.769531 111.566406 C 153.726562 112.109375 153.726562 112.84375 153.816406 113.382812 C 155.074219 112.460938 156.761719 111.242188 158.042969 110.355469 C 159.238281 108.832031 160.523438 107.421875 161.894531 106.136719 C 161.96875 105.710938 162.121094 105.144531 162.308594 104.753906 C 161.113281 105.453125 159.527344 106.402344 158.355469 107.136719 C 156.730469 108.5 155.195312 109.980469 153.769531 111.566406 " fill-opacity="1" fill-rule="nonzero"/><path fill="#3a6ab9" d="M 150.863281 112.839844 C 150.40625 113.433594 149.816406 114.25 149.4375 114.902344 C 150.46875 113.96875 151.863281 112.742188 152.933594 111.855469 C 154.410156 110.253906 155.992188 108.753906 157.667969 107.378906 C 158.140625 106.875 158.800781 106.230469 159.324219 105.785156 C 158.300781 106.488281 156.945312 107.441406 155.957031 108.191406 C 154.152344 109.628906 152.453125 111.183594 150.863281 112.839844 " fill-opacity="1" fill-rule="nonzero"/><path fill="#3881b6" d="M 202.054688 121.9375 C 203.96875 122.691406 206.515625 123.699219 208.421875 124.472656 C 209.652344 123.445312 211.28125 122.0625 212.480469 121 C 211.664062 119.019531 210.78125 117.136719 209.839844 115.359375 C 208.046875 114.683594 205.652344 113.792969 203.847656 113.152344 C 202.738281 114.085938 201.25 115.320312 200.125 116.234375 C 200.796875 118.035156 201.445312 119.9375 202.054688 121.9375 " fill-opacity="1" fill-rule="nonzero"/><g clip-path="url(#id3)"><path fill="#274082" d="M 222.871094 105.824219 C 224.730469 106.539062 227.203125 107.492188 229.058594 108.214844 C 230.511719 107.097656 232.449219 105.609375 233.894531 104.488281 C 233.339844 102.484375 232.757812 100.574219 232.15625 98.761719 C 230.410156 98.140625 228.082031 97.3125 226.335938 96.695312 C 225.003906 97.691406 223.222656 99.019531 221.886719 100.007812 C 222.207031 101.851562 222.539062 103.792969 222.871094 105.824219 " fill-opacity="1" fill-rule="nonzero"/></g><path fill="#69a2cd" d="M 174.53125 125.570312 C 176.226562 126.269531 178.488281 127.195312 180.1875 127.882812 C 181.746094 126.703125 183.832031 125.128906 185.394531 123.953125 C 185.117188 121.917969 184.855469 119.964844 184.605469 118.113281 C 183.027344 117.515625 180.921875 116.71875 179.351562 116.109375 C 177.886719 117.160156 175.9375 118.5625 174.480469 119.617188 C 174.453125 121.511719 174.472656 123.5 174.53125 125.570312 " fill-opacity="1" fill-rule="nonzero"/><path fill="#4186b9" d="M 161.800781 127.792969 C 163.234375 128.496094 165.152344 129.417969 166.597656 130.09375 C 168.15625 128.859375 170.242188 127.222656 171.820312 126.011719 C 171.8125 123.933594 171.859375 121.933594 171.953125 120.03125 C 170.628906 119.441406 168.871094 118.644531 167.558594 118.027344 C 166.074219 119.117188 164.09375 120.582031 162.617188 121.6875 C 162.269531 123.640625 161.996094 125.675781 161.800781 127.792969 " fill-opacity="1" fill-rule="nonzero"/><path fill="#274082" d="M 150.914062 130.09375 C 151.992188 130.820312 153.441406 131.769531 154.546875 132.445312 C 155.992188 131.175781 157.925781 129.496094 159.398438 128.261719 C 159.640625 126.136719 159.96875 124.089844 160.378906 122.128906 C 159.386719 121.527344 158.070312 120.714844 157.105469 120.070312 C 155.707031 121.1875 153.847656 122.6875 152.472656 123.835938 C 151.847656 125.84375 151.324219 127.933594 150.914062 130.09375 " fill-opacity="1" fill-rule="nonzero"/><path fill="#274082" d="M 142.746094 132.335938 C 143.367188 133.101562 144.230469 134.09375 144.925781 134.792969 C 146.125 133.503906 147.746094 131.804688 148.992188 130.5625 C 149.441406 128.394531 150.007812 126.292969 150.683594 124.269531 C 150.078125 123.648438 149.292969 122.792969 148.761719 122.105469 C 147.570312 123.230469 146.003906 124.746094 144.863281 125.921875 C 144.027344 127.988281 143.320312 130.128906 142.746094 132.335938 " fill-opacity="1" fill-rule="nonzero"/><path fill="#69a2cd" d="M 138.503906 134.195312 C 138.542969 135.011719 138.652344 136.105469 138.835938 136.90625 C 139.605469 135.636719 140.671875 133.96875 141.527344 132.757812 C 142.125 130.542969 142.863281 128.390625 143.730469 126.316406 C 143.59375 125.609375 143.464844 124.65625 143.472656 123.9375 C 142.671875 125.03125 141.632812 126.507812 140.910156 127.65625 C 139.96875 129.769531 139.160156 131.953125 138.503906 134.195312 " fill-opacity="1" fill-rule="nonzero"/><path fill="#3a6ab9" d="M 226.332031 136.089844 C 228.1875 137.015625 230.65625 138.253906 232.496094 139.207031 C 234.078125 137.976562 236.179688 136.328125 237.734375 135.066406 C 237.613281 133.832031 237.46875 132.59375 237.300781 131.351562 C 237.128906 130.109375 236.933594 128.882812 236.722656 127.675781 C 234.863281 126.71875 232.371094 125.46875 230.484375 124.566406 C 228.9375 125.808594 226.867188 127.464844 225.316406 128.703125 C 225.511719 129.910156 225.695312 131.140625 225.867188 132.382812 C 226.039062 133.625 226.191406 134.859375 226.332031 136.089844 " fill-opacity="1" fill-rule="nonzero"/><path fill="#3a6ab9" d="M 176.917969 150.609375 C 178.847656 151.433594 181.421875 152.535156 183.351562 153.355469 C 184.980469 151.996094 187.160156 150.191406 188.800781 148.84375 C 188.632812 147.613281 188.460938 146.378906 188.292969 145.136719 C 188.121094 143.894531 187.953125 142.667969 187.785156 141.453125 C 185.851562 140.628906 183.277344 139.53125 181.339844 138.714844 C 179.703125 140.058594 177.523438 141.855469 175.902344 143.21875 C 176.050781 144.4375 176.210938 145.664062 176.378906 146.910156 C 176.550781 148.148438 176.730469 149.382812 176.917969 150.609375 " fill-opacity="1" fill-rule="nonzero"/><path fill="#69a2cd" d="M 162.996094 153.039062 C 164.792969 153.84375 167.191406 154.90625 168.996094 155.691406 C 170.472656 154.300781 172.453125 152.457031 173.953125 151.089844 C 173.757812 149.867188 173.578125 148.632812 173.40625 147.390625 C 173.234375 146.148438 173.078125 144.917969 172.9375 143.703125 C 171.148438 142.910156 168.765625 141.851562 166.984375 141.050781 C 165.46875 142.417969 163.464844 144.25 161.980469 145.648438 C 162.105469 146.871094 162.253906 148.101562 162.421875 149.34375 C 162.59375 150.585938 162.785156 151.820312 162.996094 153.039062 " fill-opacity="1" fill-rule="nonzero"/><path fill="#689ac5" d="M 151.085938 155.558594 C 152.632812 156.359375 154.699219 157.414062 156.265625 158.175781 C 157.476562 156.773438 159.109375 154.917969 160.367188 153.554688 C 160.152344 152.332031 159.957031 151.101562 159.789062 149.859375 C 159.617188 148.617188 159.472656 147.382812 159.351562 146.164062 C 157.816406 145.386719 155.773438 144.339844 154.253906 143.535156 C 152.980469 144.90625 151.296875 146.75 150.074219 148.167969 C 150.179688 149.390625 150.316406 150.628906 150.488281 151.871094 C 150.65625 153.109375 150.859375 154.339844 151.085938 155.558594 " fill-opacity="1" fill-rule="nonzero"/><path fill="#689ac5" d="M 142.152344 158.007812 C 143.316406 158.828125 144.890625 159.898438 146.101562 160.652344 C 146.933594 159.261719 148.078125 157.417969 148.984375 156.070312 C 148.753906 154.855469 148.550781 153.625 148.378906 152.382812 C 148.210938 151.140625 148.074219 149.90625 147.972656 148.679688 C 146.792969 147.902344 145.234375 146.84375 144.089844 146.015625 C 143.167969 147.371094 141.96875 149.203125 141.140625 150.617188 C 141.230469 151.84375 141.359375 153.082031 141.53125 154.324219 C 141.703125 155.566406 141.910156 156.792969 142.152344 158.007812 " fill-opacity="1" fill-rule="nonzero"/><path fill="#274082" d="M 137.511719 160.042969 C 138.113281 160.925781 138.960938 162.078125 139.664062 162.886719 C 139.953125 161.546875 140.398438 159.773438 140.820312 158.46875 C 140.574219 157.257812 140.367188 156.027344 140.195312 154.789062 C 140.027344 153.546875 139.894531 152.308594 139.808594 151.078125 C 139.121094 150.261719 138.238281 149.140625 137.652344 148.246094 C 137.253906 149.550781 136.765625 151.3125 136.5 152.652344 C 136.582031 153.882812 136.707031 155.121094 136.878906 156.363281 C 137.050781 157.605469 137.261719 158.832031 137.511719 160.042969 " fill-opacity="1" fill-rule="nonzero"/><g clip-path="url(#id4)"><path fill="#69a2cd" d="M 228.558594 163.847656 C 229.925781 164.632812 231.734375 165.695312 233.074219 166.527344 C 234.636719 165.464844 236.71875 164.046875 238.277344 162.972656 C 238.675781 160.820312 238.996094 158.597656 239.230469 156.324219 C 237.761719 155.394531 235.785156 154.179688 234.28125 153.308594 C 232.636719 154.496094 230.445312 156.074219 228.800781 157.265625 C 228.777344 159.519531 228.695312 161.71875 228.558594 163.847656 " fill-opacity="1" fill-rule="nonzero"/></g><path fill="#689ac5" d="M 213.867188 168.621094 C 215.445312 169.339844 217.546875 170.316406 219.113281 171.066406 C 220.617188 169.953125 222.625 168.472656 224.140625 167.375 C 224.203125 165.25 224.21875 163.058594 224.191406 160.8125 C 222.476562 159.96875 220.191406 158.859375 218.464844 158.046875 C 216.871094 159.269531 214.75 160.910156 213.167969 162.148438 C 213.417969 164.371094 213.652344 166.53125 213.867188 168.621094 " fill-opacity="1" fill-rule="nonzero"/><path fill="#3a6ab9" d="M 182.101562 175.121094 C 183.800781 175.792969 186.066406 176.691406 187.761719 177.378906 C 189.09375 176.238281 190.875 174.730469 192.226562 173.617188 C 191.9375 171.539062 191.636719 169.386719 191.332031 167.171875 C 189.5 166.398438 187.0625 165.371094 185.230469 164.609375 C 183.792969 165.851562 181.882812 167.519531 180.464844 168.785156 C 180.988281 170.96875 181.535156 173.085938 182.101562 175.121094 " fill-opacity="1" fill-rule="nonzero"/><path fill="#3881b6" d="M 170.238281 177.195312 C 171.960938 177.824219 174.253906 178.664062 175.972656 179.292969 C 177.039062 178.152344 178.472656 176.640625 179.574219 175.535156 C 178.941406 173.507812 178.332031 171.402344 177.753906 169.226562 C 175.917969 168.507812 173.472656 167.546875 171.640625 166.820312 C 170.453125 168.0625 168.882812 169.730469 167.734375 171.007812 C 168.511719 173.148438 169.351562 175.210938 170.238281 177.195312 " fill-opacity="1" fill-rule="nonzero"/><path fill="#3881b6" d="M 160.09375 179.339844 C 161.71875 179.945312 163.886719 180.746094 165.519531 181.335938 C 166.234375 180.207031 167.21875 178.714844 168 177.628906 C 167.046875 175.660156 166.15625 173.605469 165.332031 171.476562 C 163.605469 170.792969 161.308594 169.875 159.589844 169.171875 C 158.742188 170.394531 157.628906 172.042969 156.847656 173.3125 C 157.84375 175.40625 158.929688 177.417969 160.09375 179.339844 " fill-opacity="1" fill-rule="nonzero"/><path fill="#69a2cd" d="M 148.53125 183.160156 C 149.519531 183.800781 150.859375 184.625 151.886719 185.203125 C 151.664062 184.199219 151.425781 182.84375 151.347656 181.820312 C 149.945312 179.964844 148.644531 178.011719 147.460938 175.972656 C 146.367188 175.300781 144.921875 174.378906 143.875 173.632812 C 143.984375 174.773438 144.183594 176.292969 144.4375 177.414062 C 145.679688 179.421875 147.046875 181.34375 148.53125 183.160156 " fill-opacity="1" fill-rule="nonzero"/><path fill="#3881b6" d="M 150.355469 186.574219 C 149.671875 185.667969 148.789062 184.429688 148.203125 183.453125 C 146.714844 181.644531 145.335938 179.730469 144.085938 177.726562 C 143.457031 177.003906 142.648438 176.007812 142.113281 175.214844 L 142.542969 176.027344 L 142.664062 176.242188 C 145.570312 180.949219 145.570312 180.949219 147.308594 183.144531 L 149.378906 185.597656 L 150.355469 186.574219 " fill-opacity="1" fill-rule="nonzero"/><path fill="#69a2cd" d="M 175.363281 196.054688 C 176.710938 196.394531 178.511719 196.847656 179.863281 197.183594 C 179.902344 196.527344 180.011719 195.652344 180.164062 195.015625 C 178.894531 193.8125 177.65625 192.484375 176.457031 191.039062 C 174.941406 190.566406 172.925781 189.941406 171.414062 189.464844 C 171.144531 190.300781 170.816406 191.433594 170.652344 192.296875 C 172.171875 193.671875 173.742188 194.925781 175.363281 196.054688 " fill-opacity="1" fill-rule="nonzero"/><path fill="#689ac5" d="M 170.738281 197.320312 C 172.0625 197.628906 173.828125 198.039062 175.15625 198.332031 C 174.84375 197.75 174.46875 196.949219 174.273438 196.320312 C 172.578125 195.210938 170.925781 193.972656 169.335938 192.617188 C 167.882812 192.183594 165.945312 191.601562 164.496094 191.152344 C 164.613281 191.964844 164.816406 193.042969 165.0625 193.828125 C 166.886719 195.117188 168.78125 196.285156 170.738281 197.320312 " fill-opacity="1" fill-rule="nonzero"/><path fill="#69a2cd" d="M 168.335938 198.375 C 169.484375 198.6875 171.015625 199.085938 172.171875 199.363281 C 171.507812 198.855469 170.640625 198.148438 170.046875 197.558594 C 168.042969 196.542969 166.097656 195.390625 164.226562 194.117188 C 162.988281 193.699219 161.339844 193.128906 160.113281 192.671875 C 160.691406 193.429688 161.496094 194.417969 162.160156 195.101562 C 164.140625 196.320312 166.207031 197.417969 168.335938 198.375 " fill-opacity="1" fill-rule="nonzero"/><path fill="#689ac5" d="M 168.28125 199.121094 C 169.179688 199.445312 170.390625 199.863281 171.308594 200.140625 C 170.34375 199.691406 169.070312 199.070312 168.136719 198.554688 C 165.992188 197.609375 163.917969 196.527344 161.917969 195.316406 C 160.984375 194.886719 159.75 194.296875 158.84375 193.808594 C 159.734375 194.449219 160.933594 195.285156 161.859375 195.867188 L 163.238281 196.660156 C 164.871094 197.566406 166.554688 198.390625 168.28125 199.121094 " fill-opacity="1" fill-rule="nonzero"/><g fill="#274082" fill-opacity="1"><g transform="translate(73.392636, 246.417988)"><g><path d="M 1.996094 -25.441406 L 1.996094 0 L 20.308594 0 L 20.308594 -4.710938 L 7.261719 -4.710938 L 7.261719 -10.367188 L 16.679688 -10.367188 L 16.679688 -15.074219 L 7.261719 -15.074219 L 7.261719 -20.734375 L 20.308594 -20.734375 L 20.308594 -25.441406 Z M 1.996094 -25.441406 "/></g></g></g><g fill="#274082" fill-opacity="1"><g transform="translate(101.385248, 246.417988)"><g><path d="M 1.996094 -25.441406 L 1.996094 0 L 7.261719 0 L 7.261719 -10.367188 L 16.679688 -10.367188 L 16.679688 -15.074219 L 7.261719 -15.074219 L 7.261719 -20.734375 L 20.308594 -20.734375 L 20.308594 -25.441406 Z M 1.996094 -25.441406 "/></g></g></g><g fill="#274082" fill-opacity="1"><g transform="translate(128.723825, 246.417988)"><g><path d="M 1.996094 -25.441406 L 1.996094 -3.628906 C 1.996094 -1.667969 3.664062 0 5.625 0 L 18.34375 0 C 20.308594 0 21.976562 -1.667969 21.976562 -3.628906 L 21.976562 -25.441406 L 16.710938 -25.441406 L 16.710938 -5.65625 C 16.710938 -5.101562 16.285156 -4.710938 15.730469 -4.710938 L 8.273438 -4.710938 C 7.71875 -4.710938 7.261719 -5.101562 7.261719 -5.65625 L 7.261719 -25.441406 Z M 1.996094 -25.441406 "/></g></g></g><g fill="#274082" fill-opacity="1"><g transform="translate(159.561478, 246.417988)"><g><path d="M 0.359375 -25.441406 L 0.359375 -20.734375 L 7.683594 -20.734375 L 7.683594 0 L 13.015625 0 L 13.015625 -20.734375 L 20.339844 -20.734375 L 20.339844 -25.441406 Z M 0.359375 -25.441406 "/></g></g></g><g fill="#274082" fill-opacity="1"><g transform="translate(187.128965, 246.417988)"><g><path d="M 1.996094 -25.441406 L 1.996094 -3.628906 C 1.996094 -1.667969 3.664062 0 5.625 0 L 18.34375 0 C 20.308594 0 21.976562 -1.667969 21.976562 -3.628906 L 21.976562 -25.441406 L 16.710938 -25.441406 L 16.710938 -5.65625 C 16.710938 -5.101562 16.285156 -4.710938 15.730469 -4.710938 L 8.273438 -4.710938 C 7.71875 -4.710938 7.261719 -5.101562 7.261719 -5.65625 L 7.261719 -25.441406 Z M 1.996094 -25.441406 "/></g></g></g><g fill="#274082" fill-opacity="1"><g transform="translate(217.966625, 246.417988)"><g><path d="M 1.996094 -25.441406 L 1.996094 0 L 7.261719 0 L 7.261719 -8.632812 L 11.675781 -8.632812 L 17.527344 0 L 23.9375 0 L 18.085938 -8.632812 L 18.34375 -8.632812 C 20.375 -8.632812 21.976562 -10.234375 21.976562 -12.261719 L 21.976562 -21.8125 C 21.976562 -23.839844 20.375 -25.441406 18.34375 -25.441406 Z M 7.261719 -13.34375 L 7.261719 -20.734375 L 15.730469 -20.734375 C 16.285156 -20.734375 16.710938 -20.339844 16.710938 -19.785156 L 16.710938 -14.289062 C 16.710938 -13.734375 16.285156 -13.34375 15.730469 -13.34375 Z M 7.261719 -13.34375 "/></g></g></g><g fill="#274082" fill-opacity="1"><g transform="translate(248.935082, 246.417988)"><g><path d="M 1.996094 -25.441406 L 1.996094 0 L 20.308594 0 L 20.308594 -4.710938 L 7.261719 -4.710938 L 7.261719 -10.367188 L 16.679688 -10.367188 L 16.679688 -15.074219 L 7.261719 -15.074219 L 7.261719 -20.734375 L 20.308594 -20.734375 L 20.308594 -25.441406 Z M 1.996094 -25.441406 "/></g></g></g><g fill="#274082" fill-opacity="1"><g transform="translate(276.9277, 246.417988)"><g><path d="M 0.359375 -25.441406 L 9.1875 -12.722656 L 0.359375 0 L 6.671875 0 L 12.359375 -9.058594 L 18.050781 0 L 24.328125 0 L 15.5 -12.722656 L 24.328125 -25.441406 L 18.050781 -25.441406 L 12.359375 -16.382812 L 6.671875 -25.441406 Z M 0.359375 -25.441406 "/></g></g></g><g fill="#737373" fill-opacity="1"><g transform="translate(94.96266, 264.419388)"><g><path d="M 3.046875 0 L 1.78125 0 L 1.78125 -4.90625 L 0.171875 -4.90625 L 0.171875 -5.953125 L 4.671875 -5.953125 L 4.671875 -4.90625 L 3.046875 -4.90625 Z M 3.046875 0 "/></g></g></g><g fill="#737373" fill-opacity="1"><g transform="translate(102.171612, 264.419388)"><g><path d="M 5.625 0 L 4.375 0 L 4.375 -2.578125 L 2.015625 -2.578125 L 2.015625 0 L 0.75 0 L 0.75 -5.953125 L 2.015625 -5.953125 L 2.015625 -3.625 L 4.375 -3.625 L 4.375 -5.953125 L 5.625 -5.953125 Z M 5.625 0 "/></g></g></g><g fill="#737373" fill-opacity="1"><g transform="translate(110.932603, 264.419388)"><g><path d="M 4.1875 0 L 0.75 0 L 0.75 -5.953125 L 4.1875 -5.953125 L 4.1875 -4.921875 L 2.015625 -4.921875 L 2.015625 -3.609375 L 4.03125 -3.609375 L 4.03125 -2.578125 L 2.015625 -2.578125 L 2.015625 -1.046875 L 4.1875 -1.046875 Z M 4.1875 0 "/></g></g></g><g fill="#737373" fill-opacity="1"><g transform="translate(117.982687, 264.419388)"><g/></g></g><g fill="#737373" fill-opacity="1"><g transform="translate(122.527509, 264.419388)"><g><path d="M 2.015625 -3.15625 L 2.421875 -3.15625 C 2.816406 -3.15625 3.109375 -3.226562 3.296875 -3.375 C 3.492188 -3.53125 3.59375 -3.753906 3.59375 -4.046875 C 3.59375 -4.347656 3.507812 -4.566406 3.34375 -4.703125 C 3.1875 -4.847656 2.9375 -4.921875 2.59375 -4.921875 L 2.015625 -4.921875 Z M 4.859375 -4.09375 C 4.859375 -3.457031 4.65625 -2.96875 4.25 -2.625 C 3.851562 -2.289062 3.285156 -2.125 2.546875 -2.125 L 2.015625 -2.125 L 2.015625 0 L 0.75 0 L 0.75 -5.953125 L 2.65625 -5.953125 C 3.375 -5.953125 3.921875 -5.796875 4.296875 -5.484375 C 4.671875 -5.171875 4.859375 -4.707031 4.859375 -4.09375 Z M 4.859375 -4.09375 "/></g></g></g><g fill="#737373" fill-opacity="1"><g transform="translate(130.14382, 264.419388)"><g><path d="M 4.390625 0 L 3.96875 -1.421875 L 1.796875 -1.421875 L 1.359375 0 L 0 0 L 2.109375 -5.984375 L 3.640625 -5.984375 L 5.75 0 Z M 3.65625 -2.484375 C 3.257812 -3.765625 3.035156 -4.488281 2.984375 -4.65625 C 2.929688 -4.820312 2.894531 -4.957031 2.875 -5.0625 C 2.789062 -4.707031 2.535156 -3.847656 2.109375 -2.484375 Z M 3.65625 -2.484375 "/></g></g></g><g fill="#737373" fill-opacity="1"><g transform="translate(138.277476, 264.419388)"><g><path d="M 3.046875 0 L 1.78125 0 L 1.78125 -4.90625 L 0.171875 -4.90625 L 0.171875 -5.953125 L 4.671875 -5.953125 L 4.671875 -4.90625 L 3.046875 -4.90625 Z M 3.046875 0 "/></g></g></g><g fill="#737373" fill-opacity="1"><g transform="translate(145.486427, 264.419388)"><g><path d="M 5.625 0 L 4.375 0 L 4.375 -2.578125 L 2.015625 -2.578125 L 2.015625 0 L 0.75 0 L 0.75 -5.953125 L 2.015625 -5.953125 L 2.015625 -3.625 L 4.375 -3.625 L 4.375 -5.953125 L 5.625 -5.953125 Z M 5.625 0 "/></g></g></g><g fill="#737373" fill-opacity="1"><g transform="translate(154.247417, 264.419388)"><g><path d="M 6.546875 0 L 5.109375 0 L 4.3125 -3.125 C 4.28125 -3.238281 4.226562 -3.46875 4.15625 -3.8125 C 4.082031 -4.164062 4.039062 -4.398438 4.03125 -4.515625 C 4.007812 -4.367188 3.96875 -4.132812 3.90625 -3.8125 C 3.84375 -3.488281 3.789062 -3.257812 3.75 -3.125 L 2.953125 0 L 1.515625 0 L 0 -5.953125 L 1.25 -5.953125 L 2 -2.703125 C 2.132812 -2.109375 2.234375 -1.585938 2.296875 -1.140625 C 2.304688 -1.296875 2.34375 -1.535156 2.40625 -1.859375 C 2.46875 -2.179688 2.523438 -2.4375 2.578125 -2.625 L 3.4375 -5.953125 L 4.625 -5.953125 L 5.5 -2.625 C 5.539062 -2.46875 5.585938 -2.234375 5.640625 -1.921875 C 5.703125 -1.617188 5.742188 -1.359375 5.765625 -1.140625 C 5.796875 -1.359375 5.84375 -1.625 5.90625 -1.9375 C 5.96875 -2.25 6.019531 -2.503906 6.0625 -2.703125 L 6.828125 -5.953125 L 8.0625 -5.953125 Z M 6.546875 0 "/></g></g></g><g fill="#737373" fill-opacity="1"><g transform="translate(164.690799, 264.419388)"><g><path d="M 4.390625 0 L 3.96875 -1.421875 L 1.796875 -1.421875 L 1.359375 0 L 0 0 L 2.109375 -5.984375 L 3.640625 -5.984375 L 5.75 0 Z M 3.65625 -2.484375 C 3.257812 -3.765625 3.035156 -4.488281 2.984375 -4.65625 C 2.929688 -4.820312 2.894531 -4.957031 2.875 -5.0625 C 2.789062 -4.707031 2.535156 -3.847656 2.109375 -2.484375 Z M 3.65625 -2.484375 "/></g></g></g><g fill="#737373" fill-opacity="1"><g transform="translate(172.824455, 264.419388)"><g><path d="M 2.609375 -3.5 L 3.84375 -5.953125 L 5.203125 -5.953125 L 3.234375 -2.3125 L 3.234375 0 L 1.96875 0 L 1.96875 -2.28125 L 0 -5.953125 L 1.375 -5.953125 Z M 2.609375 -3.5 "/></g></g></g><g fill="#737373" fill-opacity="1"><g transform="translate(180.408177, 264.419388)"><g/></g></g><g fill="#737373" fill-opacity="1"><g transform="translate(184.953005, 264.419388)"><g><path d="M 3.046875 0 L 1.78125 0 L 1.78125 -4.90625 L 0.171875 -4.90625 L 0.171875 -5.953125 L 4.671875 -5.953125 L 4.671875 -4.90625 L 3.046875 -4.90625 Z M 3.046875 0 "/></g></g></g><g fill="#737373" fill-opacity="1"><g transform="translate(192.161956, 264.419388)"><g><path d="M 6.15625 -2.984375 C 6.15625 -1.992188 5.910156 -1.234375 5.421875 -0.703125 C 4.929688 -0.179688 4.234375 0.078125 3.328125 0.078125 C 2.410156 0.078125 1.707031 -0.179688 1.21875 -0.703125 C 0.726562 -1.234375 0.484375 -2 0.484375 -3 C 0.484375 -3.988281 0.726562 -4.742188 1.21875 -5.265625 C 1.707031 -5.785156 2.410156 -6.046875 3.328125 -6.046875 C 4.242188 -6.046875 4.941406 -5.78125 5.421875 -5.25 C 5.910156 -4.726562 6.15625 -3.972656 6.15625 -2.984375 Z M 1.8125 -2.984375 C 1.8125 -2.316406 1.9375 -1.816406 2.1875 -1.484375 C 2.4375 -1.148438 2.816406 -0.984375 3.328125 -0.984375 C 4.328125 -0.984375 4.828125 -1.648438 4.828125 -2.984375 C 4.828125 -4.328125 4.328125 -5 3.328125 -5 C 2.828125 -5 2.445312 -4.828125 2.1875 -4.484375 C 1.9375 -4.148438 1.8125 -3.648438 1.8125 -2.984375 Z M 1.8125 -2.984375 "/></g></g></g><g fill="#737373" fill-opacity="1"><g transform="translate(201.179582, 264.419388)"><g/></g></g><g fill="#737373" fill-opacity="1"><g transform="translate(205.724404, 264.419388)"><g><path d="M 2.609375 -3.5 L 3.84375 -5.953125 L 5.203125 -5.953125 L 3.234375 -2.3125 L 3.234375 0 L 1.96875 0 L 1.96875 -2.28125 L 0 -5.953125 L 1.375 -5.953125 Z M 2.609375 -3.5 "/></g></g></g><g fill="#737373" fill-opacity="1"><g transform="translate(213.308126, 264.419388)"><g><path d="M 6.15625 -2.984375 C 6.15625 -1.992188 5.910156 -1.234375 5.421875 -0.703125 C 4.929688 -0.179688 4.234375 0.078125 3.328125 0.078125 C 2.410156 0.078125 1.707031 -0.179688 1.21875 -0.703125 C 0.726562 -1.234375 0.484375 -2 0.484375 -3 C 0.484375 -3.988281 0.726562 -4.742188 1.21875 -5.265625 C 1.707031 -5.785156 2.410156 -6.046875 3.328125 -6.046875 C 4.242188 -6.046875 4.941406 -5.78125 5.421875 -5.25 C 5.910156 -4.726562 6.15625 -3.972656 6.15625 -2.984375 Z M 1.8125 -2.984375 C 1.8125 -2.316406 1.9375 -1.816406 2.1875 -1.484375 C 2.4375 -1.148438 2.816406 -0.984375 3.328125 -0.984375 C 4.328125 -0.984375 4.828125 -1.648438 4.828125 -2.984375 C 4.828125 -4.328125 4.328125 -5 3.328125 -5 C 2.828125 -5 2.445312 -4.828125 2.1875 -4.484375 C 1.9375 -4.148438 1.8125 -3.648438 1.8125 -2.984375 Z M 1.8125 -2.984375 "/></g></g></g><g fill="#737373" fill-opacity="1"><g transform="translate(222.325752, 264.419388)"><g><path d="M 5.59375 -5.953125 L 5.59375 -2.109375 C 5.59375 -1.660156 5.492188 -1.269531 5.296875 -0.9375 C 5.097656 -0.613281 4.8125 -0.363281 4.4375 -0.1875 C 4.070312 -0.0078125 3.632812 0.078125 3.125 0.078125 C 2.363281 0.078125 1.769531 -0.113281 1.34375 -0.5 C 0.914062 -0.894531 0.703125 -1.4375 0.703125 -2.125 L 0.703125 -5.953125 L 1.96875 -5.953125 L 1.96875 -2.3125 C 1.96875 -1.851562 2.054688 -1.515625 2.234375 -1.296875 C 2.421875 -1.085938 2.726562 -0.984375 3.15625 -0.984375 C 3.570312 -0.984375 3.875 -1.085938 4.0625 -1.296875 C 4.25 -1.515625 4.34375 -1.851562 4.34375 -2.3125 L 4.34375 -5.953125 Z M 5.59375 -5.953125 "/></g></g></g><g fill="#737373" fill-opacity="1"><g transform="translate(231.009343, 264.419388)"><g><path d="M 2.015625 -3.3125 L 2.421875 -3.3125 C 2.816406 -3.3125 3.109375 -3.378906 3.296875 -3.515625 C 3.492188 -3.648438 3.59375 -3.859375 3.59375 -4.140625 C 3.59375 -4.421875 3.492188 -4.617188 3.296875 -4.734375 C 3.097656 -4.859375 2.796875 -4.921875 2.390625 -4.921875 L 2.015625 -4.921875 Z M 2.015625 -2.28125 L 2.015625 0 L 0.75 0 L 0.75 -5.953125 L 2.484375 -5.953125 C 3.296875 -5.953125 3.894531 -5.804688 4.28125 -5.515625 C 4.664062 -5.222656 4.859375 -4.773438 4.859375 -4.171875 C 4.859375 -3.816406 4.757812 -3.503906 4.5625 -3.234375 C 4.375 -2.960938 4.101562 -2.75 3.75 -2.59375 C 4.644531 -1.257812 5.234375 -0.394531 5.515625 0 L 4.109375 0 L 2.6875 -2.28125 Z M 2.015625 -2.28125 "/></g></g></g><g fill="#737373" fill-opacity="1"><g transform="translate(238.89451, 264.419388)"><g/></g></g><g fill="#737373" fill-opacity="1"><g transform="translate(243.439333, 264.419388)"><g><path d="M 2 0 L 0.75 0 L 0.75 -5.953125 L 4.15625 -5.953125 L 4.15625 -4.921875 L 2 -4.921875 L 2 -3.390625 L 4.015625 -3.390625 L 4.015625 -2.359375 L 2 -2.359375 Z M 2 0 "/></g></g></g><g fill="#737373" fill-opacity="1"><g transform="translate(250.395722, 264.419388)"><g><path d="M 5.59375 -5.953125 L 5.59375 -2.109375 C 5.59375 -1.660156 5.492188 -1.269531 5.296875 -0.9375 C 5.097656 -0.613281 4.8125 -0.363281 4.4375 -0.1875 C 4.070312 -0.0078125 3.632812 0.078125 3.125 0.078125 C 2.363281 0.078125 1.769531 -0.113281 1.34375 -0.5 C 0.914062 -0.894531 0.703125 -1.4375 0.703125 -2.125 L 0.703125 -5.953125 L 1.96875 -5.953125 L 1.96875 -2.3125 C 1.96875 -1.851562 2.054688 -1.515625 2.234375 -1.296875 C 2.421875 -1.085938 2.726562 -0.984375 3.15625 -0.984375 C 3.570312 -0.984375 3.875 -1.085938 4.0625 -1.296875 C 4.25 -1.515625 4.34375 -1.851562 4.34375 -2.3125 L 4.34375 -5.953125 Z M 5.59375 -5.953125 "/></g></g></g><g fill="#737373" fill-opacity="1"><g transform="translate(259.079313, 264.419388)"><g><path d="M 3.046875 0 L 1.78125 0 L 1.78125 -4.90625 L 0.171875 -4.90625 L 0.171875 -5.953125 L 4.671875 -5.953125 L 4.671875 -4.90625 L 3.046875 -4.90625 Z M 3.046875 0 "/></g></g></g><g fill="#737373" fill-opacity="1"><g transform="translate(266.288264, 264.419388)"><g><path d="M 5.59375 -5.953125 L 5.59375 -2.109375 C 5.59375 -1.660156 5.492188 -1.269531 5.296875 -0.9375 C 5.097656 -0.613281 4.8125 -0.363281 4.4375 -0.1875 C 4.070312 -0.0078125 3.632812 0.078125 3.125 0.078125 C 2.363281 0.078125 1.769531 -0.113281 1.34375 -0.5 C 0.914062 -0.894531 0.703125 -1.4375 0.703125 -2.125 L 0.703125 -5.953125 L 1.96875 -5.953125 L 1.96875 -2.3125 C 1.96875 -1.851562 2.054688 -1.515625 2.234375 -1.296875 C 2.421875 -1.085938 2.726562 -0.984375 3.15625 -0.984375 C 3.570312 -0.984375 3.875 -1.085938 4.0625 -1.296875 C 4.25 -1.515625 4.34375 -1.851562 4.34375 -2.3125 L 4.34375 -5.953125 Z M 5.59375 -5.953125 "/></g></g></g><g fill="#737373" fill-opacity="1"><g transform="translate(274.971866, 264.419388)"><g><path d="M 2.015625 -3.3125 L 2.421875 -3.3125 C 2.816406 -3.3125 3.109375 -3.378906 3.296875 -3.515625 C 3.492188 -3.648438 3.59375 -3.859375 3.59375 -4.140625 C 3.59375 -4.421875 3.492188 -4.617188 3.296875 -4.734375 C 3.097656 -4.859375 2.796875 -4.921875 2.390625 -4.921875 L 2.015625 -4.921875 Z M 2.015625 -2.28125 L 2.015625 0 L 0.75 0 L 0.75 -5.953125 L 2.484375 -5.953125 C 3.296875 -5.953125 3.894531 -5.804688 4.28125 -5.515625 C 4.664062 -5.222656 4.859375 -4.773438 4.859375 -4.171875 C 4.859375 -3.816406 4.757812 -3.503906 4.5625 -3.234375 C 4.375 -2.960938 4.101562 -2.75 3.75 -2.59375 C 4.644531 -1.257812 5.234375 -0.394531 5.515625 0 L 4.109375 0 L 2.6875 -2.28125 Z M 2.015625 -2.28125 "/></g></g></g><g fill="#737373" fill-opacity="1"><g transform="translate(282.857044, 264.419388)"><g><path d="M 4.1875 0 L 0.75 0 L 0.75 -5.953125 L 4.1875 -5.953125 L 4.1875 -4.921875 L 2.015625 -4.921875 L 2.015625 -3.609375 L 4.03125 -3.609375 L 4.03125 -2.578125 L 2.015625 -2.578125 L 2.015625 -1.046875 L 4.1875 -1.046875 Z M 4.1875 0 "/></g></g></g></svg>