<svg id="Group_66" data-name="Group 66" xmlns="http://www.w3.org/2000/svg" width="239.627" height="46" viewBox="0 0 239.627 46">
  <g id="Group_36" data-name="Group 36">
    <circle id="Ellipse_6" data-name="Ellipse 6" cx="23" cy="23" r="23" fill="#152427"/>
    <g id="Group_35" data-name="Group 35" transform="translate(11.864 7.168)">
      <path id="Path_2558" data-name="Path 2558" d="M12.38,7.48l3.785,31.912L41.906,20.159Zm5.75,13.043-1.217,9.7L15,14.131Zm1.744.747h17.49L18.053,35.713Zm15.793-1.792H19.682l-4.312-8.73Z" transform="translate(-12.38 -7.48)" fill="#d3b758"/>
    </g>
  </g>
  <path id="Path_2608" data-name="Path 2608" d="M13.33-13.074H8.5V0H5.249V-13.074H.4v-2.954H13.33Zm2.161-2.954H18.75V-9.5h6.7v-6.531h3.271V0H25.452V-6.677h-6.7V0H15.491Zm19.8,2.954V-9.5h6.4v2.82h-6.4v3.723h7.166V0h-10.4V-16.028h10.4v2.954Zm22.351-2.954A8.406,8.406,0,0,1,61.81-15a7.365,7.365,0,0,1,2.875,2.863,8.328,8.328,0,0,1,1.038,4.169A8.245,8.245,0,0,1,64.7-3.839a7.243,7.243,0,0,1-2.863,2.826A8.538,8.538,0,0,1,57.642,0h-6.2V-16.028ZM57.349-2.954a4.8,4.8,0,0,0,3.607-1.373,5,5,0,0,0,1.337-3.644,5.115,5.115,0,0,0-1.349-3.7,4.755,4.755,0,0,0-3.595-1.4H54.7v10.12ZM71.936-16.028h3.223L81.1,0H77.686L76.428-3.5H70.605L69.336,0H65.979ZM75.488-6.2l-.83-2.344Q74.28-9.57,73.981-10.5t-.4-1.257q-.1.33-.464,1.379t-.684,1.855L71.558-6.2Zm17.688-6.873H88.342V0H85.1V-13.074H80.249v-2.954H93.176Zm5.09-2.954h3.223L107.434,0h-3.418l-1.257-3.5H96.936L95.667,0H92.31ZM101.819-6.2l-.83-2.344q-.378-1.025-.677-1.953t-.4-1.257q-.1.33-.464,1.379t-.684,1.855L97.888-6.2Zm19.751-9.827A8.406,8.406,0,0,1,125.739-15a7.365,7.365,0,0,1,2.875,2.863,8.328,8.328,0,0,1,1.038,4.169,8.245,8.245,0,0,1-1.025,4.132,7.243,7.243,0,0,1-2.863,2.826A8.538,8.538,0,0,1,121.57,0h-6.2V-16.028Zm-.293,13.074a4.8,4.8,0,0,0,3.607-1.373,5,5,0,0,0,1.337-3.644,5.115,5.115,0,0,0-1.349-3.7,4.755,4.755,0,0,0-3.595-1.4h-2.649v10.12Zm10.864-13.074h3.247V-6.006a3.144,3.144,0,0,0,.989,2.551,3.852,3.852,0,0,0,2.563.83,3.771,3.771,0,0,0,2.625-.861,3.225,3.225,0,0,0,.952-2.521V-16.028h3.247V-5.872a6.247,6.247,0,0,1-.873,3.375A5.511,5.511,0,0,1,142.48-.385a8.32,8.32,0,0,1-3.54.714,7.183,7.183,0,0,1-4.95-1.642,5.781,5.781,0,0,1-1.849-4.559ZM156.592.33a8.874,8.874,0,0,1-4.327-1.038,7.4,7.4,0,0,1-2.96-2.93,8.8,8.8,0,0,1-1.062-4.382,8.907,8.907,0,0,1,1.038-4.364,7.254,7.254,0,0,1,2.936-2.924,8.977,8.977,0,0,1,4.376-1.038,9.721,9.721,0,0,1,3.723.7,7.023,7.023,0,0,1,2.8,2.02,6.306,6.306,0,0,1,1.379,3.107h-3.625a3.5,3.5,0,0,0-1.5-2.039,4.91,4.91,0,0,0-2.82-.793,4.556,4.556,0,0,0-3.564,1.465A5.6,5.6,0,0,0,151.66-8,5.432,5.432,0,0,0,153-4.12,4.638,4.638,0,0,0,156.543-2.7a4.966,4.966,0,0,0,2.783-.775,3.527,3.527,0,0,0,1.538-2.057h3.625a6.113,6.113,0,0,1-1.324,3.052,7.2,7.2,0,0,1-2.789,2.069A9.441,9.441,0,0,1,156.592.33Zm18.518-9.46L180.627,0h-3.918l-3.833-6.348L170.361-3.2V.049H167.1V-16.028h3.259v7.8l6.226-7.8h4.041Z" transform="translate(59 31)" fill="#152427"/>
</svg>
